<?xml version="1.0" encoding="UTF-8" standalone="no"?>
<!DOCTYPE svg PUBLIC "-//W3C//DTD SVG 1.0//EN"
 "http://www.w3.org/TR/2001/REC-SVG-20010904/DTD/svg10.dtd" [
 <!ATTLIST svg xmlns:xlink CDATA #FIXED "http://www.w3.org/1999/xlink">
]>
<!-- Generated by Graphviz version 2.20.2 (Tue Mar &#160;2 21:46:26 UTC 2010)
     For user: (heurion) HEURION,,, -->
<!-- Title: controllers_diagram Pages: 1 -->
<svg width="618pt" height="162pt"
 viewBox="0.00 0.00 618.00 162.00" xmlns="http://www.w3.org/2000/svg" xmlns:xlink="http://www.w3.org/1999/xlink">
<g id="graph0" class="graph" transform="scale(1 1) rotate(0) translate(4 158)">
<title>controllers_diagram</title>
<polygon style="fill:white;stroke:white;" points="-4,4 -4,-158 614,-158 614,4 -4,4"/>
<!-- _diagram_info -->
<g id="node1" class="node"><title>_diagram_info</title>
<text text-anchor="start" x="368.5" y="-137.8" style="font-family:Times New Roman;font-size:13.00;">Controllers diagram</text>
<text text-anchor="start" x="368.5" y="-120.8" style="font-family:Times New Roman;font-size:13.00;">Date: Oct 17 2012 &#45; 13:26</text>
<text text-anchor="start" x="368.5" y="-103.8" style="font-family:Times New Roman;font-size:13.00;">Migration version: 20121015131915</text>
<text text-anchor="start" x="368.5" y="-86.8" style="font-family:Times New Roman;font-size:13.00;">Generated by RailRoady 1.1.0</text>
<text text-anchor="start" x="368.5" y="-69.8" style="font-family:Times New Roman;font-size:13.00;">http://railroady.prestonlee.com</text>
</g>
<!-- EmpsController -->
<g id="node2" class="node"><title>EmpsController</title>
<ellipse style="fill:none;stroke:black;" cx="86" cy="-19" rx="84.7756" ry="18"/>
<text text-anchor="middle" x="86" y="-14.9" style="font-family:Times New Roman;font-size:14.00;">EmpsController</text>
</g>
<!-- KotisController -->
<g id="node3" class="node"><title>KotisController</title>
<ellipse style="fill:none;stroke:black;" cx="527" cy="-19" rx="81.9961" ry="18"/>
<text text-anchor="middle" x="527" y="-14.9" style="font-family:Times New Roman;font-size:14.00;">KotisController</text>
</g>
<!-- ApplicationController -->
<g id="node4" class="node"><title>ApplicationController</title>
<ellipse style="fill:none;stroke:black;" cx="307" cy="-19" rx="111.876" ry="18"/>
<text text-anchor="middle" x="307" y="-14.9" style="font-family:Times New Roman;font-size:14.00;">ApplicationController</text>
</g>
<!-- ApplicationController&#45;&gt;EmpsController -->
<g id="edge2" class="edge"><title>ApplicationController&#45;&gt;EmpsController</title>
<path style="fill:none;stroke:black;" d="M185,-19C180,-19 176,-19 171,-19"/>
<polygon style="fill:none;stroke:black;" points="185,-22.5001 195,-19 185,-15.5001 185,-22.5001"/>
</g>
<!-- ApplicationController&#45;&gt;KotisController -->
<g id="edge4" class="edge"><title>ApplicationController&#45;&gt;KotisController</title>
<path style="fill:none;stroke:black;" d="M429,-19C434,-19 440,-19 445,-19"/>
<polygon style="fill:none;stroke:black;" points="429,-15.5001 419,-19 429,-22.5001 429,-15.5001"/>
</g>
</g>
</svg>
