<?xml version="1.0" encoding="UTF-8" standalone="no"?>
<!DOCTYPE svg PUBLIC "-//W3C//DTD SVG 1.0//EN"
 "http://www.w3.org/TR/2001/REC-SVG-20010904/DTD/svg10.dtd" [
 <!ATTLIST svg xmlns:xlink CDATA #FIXED "http://www.w3.org/1999/xlink">
]>
<!-- Generated by Graphviz version 2.20.2 (Tue Mar &#160;2 21:46:26 UTC 2010)
     For user: (heurion) HEURION,,, -->
<!-- Title: controllers_diagram Pages: 1 -->
<svg width="599pt" height="357pt"
 viewBox="0.00 0.00 599.00 357.00" xmlns="http://www.w3.org/2000/svg" xmlns:xlink="http://www.w3.org/1999/xlink">
<g id="graph0" class="graph" transform="scale(1 1) rotate(0) translate(4 353)">
<title>controllers_diagram</title>
<polygon style="fill:white;stroke:white;" points="-4,4 -4,-353 595,-353 595,4 -4,4"/>
<!-- _diagram_info -->
<g id="node1" class="node"><title>_diagram_info</title>
<text text-anchor="start" x="349.5" y="-77.8" style="font-family:Times New Roman;font-size:13.00;">Controllers diagram</text>
<text text-anchor="start" x="349.5" y="-60.8" style="font-family:Times New Roman;font-size:13.00;">Date: Oct 17 2012 &#45; 13:25</text>
<text text-anchor="start" x="349.5" y="-43.8" style="font-family:Times New Roman;font-size:13.00;">Migration version: 20121015131915</text>
<text text-anchor="start" x="349.5" y="-26.8" style="font-family:Times New Roman;font-size:13.00;">Generated by RailRoady 1.1.0</text>
<text text-anchor="start" x="349.5" y="-9.8" style="font-family:Times New Roman;font-size:13.00;">http://railroady.prestonlee.com</text>
</g>
<!-- EmpsController -->
<g id="node2" class="node"><title>EmpsController</title>
<polyline style="fill:none;stroke:black;" points="13,-141 111,-141 "/>
<path style="fill:none;stroke:black;" d="M111,-141C117,-141 123,-147 123,-153"/>
<polyline style="fill:none;stroke:black;" points="123,-153 123,-330 "/>
<path style="fill:none;stroke:black;" d="M123,-330C123,-336 117,-342 111,-342"/>
<polyline style="fill:none;stroke:black;" points="111,-342 13,-342 "/>
<path style="fill:none;stroke:black;" d="M13,-342C7,-342 1,-336 1,-330"/>
<polyline style="fill:none;stroke:black;" points="1,-330 1,-153 "/>
<path style="fill:none;stroke:black;" d="M1,-153C1,-147 7,-141 13,-141"/>
<text text-anchor="middle" x="62" y="-324.9" style="font-family:Times New Roman;font-size:14.00;">EmpsController</text>
<polyline style="fill:none;stroke:black;" points="1,-317 123,-317 "/>
<text text-anchor="start" x="9" y="-299.9" style="font-family:Times New Roman;font-size:14.00;">create</text>
<text text-anchor="start" x="9" y="-282.9" style="font-family:Times New Roman;font-size:14.00;">destroy</text>
<text text-anchor="start" x="9" y="-265.9" style="font-family:Times New Roman;font-size:14.00;">edit</text>
<text text-anchor="start" x="9" y="-248.9" style="font-family:Times New Roman;font-size:14.00;">index</text>
<text text-anchor="start" x="9" y="-231.9" style="font-family:Times New Roman;font-size:14.00;">new</text>
<text text-anchor="start" x="9" y="-214.9" style="font-family:Times New Roman;font-size:14.00;">show</text>
<text text-anchor="start" x="9" y="-197.9" style="font-family:Times New Roman;font-size:14.00;">update</text>
<polyline style="fill:none;stroke:black;" points="1,-190 123,-190 "/>
<polyline style="fill:none;stroke:black;" points="1,-166 123,-166 "/>
<text text-anchor="start" x="9" y="-148.9" style="font-family:Times New Roman;font-size:14.00;">_layout</text>
</g>
<!-- KotisController -->
<g id="node3" class="node"><title>KotisController</title>
<polyline style="fill:none;stroke:black;" points="285,-147 379,-147 "/>
<path style="fill:none;stroke:black;" d="M379,-147C385,-147 391,-153 391,-159"/>
<polyline style="fill:none;stroke:black;" points="391,-159 391,-336 "/>
<path style="fill:none;stroke:black;" d="M391,-336C391,-342 385,-348 379,-348"/>
<polyline style="fill:none;stroke:black;" points="379,-348 285,-348 "/>
<path style="fill:none;stroke:black;" d="M285,-348C279,-348 273,-342 273,-336"/>
<polyline style="fill:none;stroke:black;" points="273,-336 273,-159 "/>
<path style="fill:none;stroke:black;" d="M273,-159C273,-153 279,-147 285,-147"/>
<text text-anchor="middle" x="332" y="-330.9" style="font-family:Times New Roman;font-size:14.00;">KotisController</text>
<polyline style="fill:none;stroke:black;" points="273,-323 391,-323 "/>
<text text-anchor="start" x="281" y="-305.9" style="font-family:Times New Roman;font-size:14.00;">create</text>
<text text-anchor="start" x="281" y="-288.9" style="font-family:Times New Roman;font-size:14.00;">destroy</text>
<text text-anchor="start" x="281" y="-271.9" style="font-family:Times New Roman;font-size:14.00;">edit</text>
<text text-anchor="start" x="281" y="-254.9" style="font-family:Times New Roman;font-size:14.00;">index</text>
<text text-anchor="start" x="281" y="-237.9" style="font-family:Times New Roman;font-size:14.00;">new</text>
<text text-anchor="start" x="281" y="-220.9" style="font-family:Times New Roman;font-size:14.00;">show</text>
<text text-anchor="start" x="281" y="-203.9" style="font-family:Times New Roman;font-size:14.00;">update</text>
<polyline style="fill:none;stroke:black;" points="273,-196 391,-196 "/>
<polyline style="fill:none;stroke:black;" points="273,-172 391,-172 "/>
<text text-anchor="start" x="281" y="-154.9" style="font-family:Times New Roman;font-size:14.00;">_layout</text>
</g>
<!-- ApplicationController -->
<g id="node4" class="node"><title>ApplicationController</title>
<polyline style="fill:none;stroke:black;" points="99,-31 312,-31 "/>
<path style="fill:none;stroke:black;" d="M312,-31C318,-31 324,-37 324,-43"/>
<polyline style="fill:none;stroke:black;" points="324,-43 324,-118 "/>
<path style="fill:none;stroke:black;" d="M324,-118C324,-124 318,-130 312,-130"/>
<polyline style="fill:none;stroke:black;" points="312,-130 99,-130 "/>
<path style="fill:none;stroke:black;" d="M99,-130C93,-130 87,-124 87,-118"/>
<polyline style="fill:none;stroke:black;" points="87,-118 87,-43 "/>
<path style="fill:none;stroke:black;" d="M87,-43C87,-37 93,-31 99,-31"/>
<text text-anchor="middle" x="205" y="-112.9" style="font-family:Times New Roman;font-size:14.00;">ApplicationController</text>
<polyline style="fill:none;stroke:black;" points="87,-105 324,-105 "/>
<text text-anchor="start" x="94.5" y="-87.9" style="font-family:Times New Roman;font-size:14.00;">_one_time_conditions_valid_38?</text>
<polyline style="fill:none;stroke:black;" points="87,-80 324,-80 "/>
<polyline style="fill:none;stroke:black;" points="87,-56 324,-56 "/>
<text text-anchor="start" x="94.5" y="-38.9" style="font-family:Times New Roman;font-size:14.00;">_layout</text>
</g>
<!-- ApplicationController&#45;&gt;EmpsController -->
<g id="edge2" class="edge"><title>ApplicationController&#45;&gt;EmpsController</title>
<path style="fill:none;stroke:black;" d="M154,-138C144,-149 134,-162 123,-173"/>
<polygon style="fill:none;stroke:black;" points="157.049,-139.831 161,-130 151.781,-135.221 157.049,-139.831"/>
</g>
<!-- ApplicationController&#45;&gt;KotisController -->
<g id="edge4" class="edge"><title>ApplicationController&#45;&gt;KotisController</title>
<path style="fill:none;stroke:black;" d="M248,-138C256,-148 264,-159 273,-170"/>
<polygon style="fill:none;stroke:black;" points="250.8,-135.9 242,-130 245.2,-140.1 250.8,-135.9"/>
</g>
</g>
</svg>
