<?xml version="1.0" encoding="UTF-8" standalone="no"?>
<!DOCTYPE svg PUBLIC "-//W3C//DTD SVG 1.0//EN"
 "http://www.w3.org/TR/2001/REC-SVG-20010904/DTD/svg10.dtd" [
 <!ATTLIST svg xmlns:xlink CDATA #FIXED "http://www.w3.org/1999/xlink">
]>
<!-- Generated by Graphviz version 2.20.2 (Tue Mar &#160;2 21:46:26 UTC 2010)
     For user: (heurion) HEURION,,, -->
<!-- Title: models_diagram Pages: 1 -->
<svg width="892pt" height="450pt"
 viewBox="0.00 0.00 892.00 450.00" xmlns="http://www.w3.org/2000/svg" xmlns:xlink="http://www.w3.org/1999/xlink">
<g id="graph0" class="graph" transform="scale(1 1) rotate(0) translate(4 446)">
<title>models_diagram</title>
<polygon style="fill:white;stroke:white;" points="-4,4 -4,-446 888,-446 888,4 -4,4"/>
<!-- _diagram_info -->
<g id="node1" class="node"><title>_diagram_info</title>
<text text-anchor="start" x="7.5" y="-345.8" style="font-family:Times New Roman;font-size:13.00;">Models diagram</text>
<text text-anchor="start" x="7.5" y="-328.8" style="font-family:Times New Roman;font-size:13.00;">Date: Oct 17 2012 &#45; 13:25</text>
<text text-anchor="start" x="7.5" y="-311.8" style="font-family:Times New Roman;font-size:13.00;">Migration version: 20121015131915</text>
<text text-anchor="start" x="7.5" y="-294.8" style="font-family:Times New Roman;font-size:13.00;">Generated by RailRoady 1.1.0</text>
<text text-anchor="start" x="7.5" y="-277.8" style="font-family:Times New Roman;font-size:13.00;">http://railroady.prestonlee.com</text>
</g>
<!-- Koti -->
<g id="node2" class="node"><title>Koti</title>
<polyline style="fill:none;stroke:black;" points="278,-256 419,-256 "/>
<path style="fill:none;stroke:black;" d="M419,-256C425,-256 431,-262 431,-268"/>
<polyline style="fill:none;stroke:black;" points="431,-268 431,-362 "/>
<path style="fill:none;stroke:black;" d="M431,-362C431,-368 425,-374 419,-374"/>
<polyline style="fill:none;stroke:black;" points="419,-374 278,-374 "/>
<path style="fill:none;stroke:black;" d="M278,-374C272,-374 266,-368 266,-362"/>
<polyline style="fill:none;stroke:black;" points="266,-362 266,-268 "/>
<path style="fill:none;stroke:black;" d="M266,-268C266,-262 272,-256 278,-256"/>
<text text-anchor="middle" x="348" y="-356.9" style="font-family:Times New Roman;font-size:14.00;">Koti</text>
<polyline style="fill:none;stroke:black;" points="266,-349 431,-349 "/>
<text text-anchor="start" x="273.5" y="-331.9" style="font-family:Times New Roman;font-size:14.00;">id :integer</text>
<text text-anchor="start" x="273.5" y="-314.9" style="font-family:Times New Roman;font-size:14.00;">place :string</text>
<text text-anchor="start" x="273.5" y="-297.9" style="font-family:Times New Roman;font-size:14.00;">course :string</text>
<text text-anchor="start" x="273.5" y="-280.9" style="font-family:Times New Roman;font-size:14.00;">created_at :datetime</text>
<text text-anchor="start" x="273.5" y="-263.9" style="font-family:Times New Roman;font-size:14.00;">updated_at :datetime</text>
</g>
<!-- Emp -->
<g id="node4" class="node"><title>Emp</title>
<polyline style="fill:none;stroke:black;" points="278,-0 419,-0 "/>
<path style="fill:none;stroke:black;" d="M419,-0C425,-0 431,-6 431,-12"/>
<polyline style="fill:none;stroke:black;" points="431,-12 431,-140 "/>
<path style="fill:none;stroke:black;" d="M431,-140C431,-146 425,-152 419,-152"/>
<polyline style="fill:none;stroke:black;" points="419,-152 278,-152 "/>
<path style="fill:none;stroke:black;" d="M278,-152C272,-152 266,-146 266,-140"/>
<polyline style="fill:none;stroke:black;" points="266,-140 266,-12 "/>
<path style="fill:none;stroke:black;" d="M266,-12C266,-6 272,-0 278,-0"/>
<text text-anchor="middle" x="348" y="-134.9" style="font-family:Times New Roman;font-size:14.00;">Emp</text>
<polyline style="fill:none;stroke:black;" points="266,-127 431,-127 "/>
<text text-anchor="start" x="273.5" y="-109.9" style="font-family:Times New Roman;font-size:14.00;">id :integer</text>
<text text-anchor="start" x="273.5" y="-92.9" style="font-family:Times New Roman;font-size:14.00;">name :string</text>
<text text-anchor="start" x="273.5" y="-75.9" style="font-family:Times New Roman;font-size:14.00;">branch :string</text>
<text text-anchor="start" x="273.5" y="-58.9" style="font-family:Times New Roman;font-size:14.00;">phneno :string</text>
<text text-anchor="start" x="273.5" y="-41.9" style="font-family:Times New Roman;font-size:14.00;">address :text</text>
<text text-anchor="start" x="273.5" y="-24.9" style="font-family:Times New Roman;font-size:14.00;">created_at :datetime</text>
<text text-anchor="start" x="273.5" y="-7.9" style="font-family:Times New Roman;font-size:14.00;">updated_at :datetime</text>
</g>
<!-- Koti&#45;&gt;Emp -->
<g id="edge2" class="edge"><title>Koti&#45;&gt;Emp</title>
<path style="fill:none;stroke:#689cdb;" d="M348,-246C348,-220 348,-190 348,-162"/>
<polygon style="fill:#689cdb;stroke:#689cdb;" points="348,-246 343.5,-256 348,-251 348,-256 348,-256 348,-256 348,-251 352.5,-256 348,-246 348,-246"/>
<polygon style="fill:#689cdb;stroke:#689cdb;" points="348,-162 352.5,-152 348,-157 348,-152 348,-152 348,-152 348,-157 343.5,-152 348,-162 348,-162"/>
</g>
<!-- Education -->
<g id="node3" class="node"><title>Education</title>
<polyline style="fill:none;stroke:black;" points="460,-256 601,-256 "/>
<path style="fill:none;stroke:black;" d="M601,-256C607,-256 613,-262 613,-268"/>
<polyline style="fill:none;stroke:black;" points="613,-268 613,-362 "/>
<path style="fill:none;stroke:black;" d="M613,-362C613,-368 607,-374 601,-374"/>
<polyline style="fill:none;stroke:black;" points="601,-374 460,-374 "/>
<path style="fill:none;stroke:black;" d="M460,-374C454,-374 448,-368 448,-362"/>
<polyline style="fill:none;stroke:black;" points="448,-362 448,-268 "/>
<path style="fill:none;stroke:black;" d="M448,-268C448,-262 454,-256 460,-256"/>
<text text-anchor="middle" x="530" y="-356.9" style="font-family:Times New Roman;font-size:14.00;">Education</text>
<polyline style="fill:none;stroke:black;" points="448,-349 613,-349 "/>
<text text-anchor="start" x="455.5" y="-331.9" style="font-family:Times New Roman;font-size:14.00;">id :integer</text>
<text text-anchor="start" x="455.5" y="-314.9" style="font-family:Times New Roman;font-size:14.00;">course :string</text>
<text text-anchor="start" x="455.5" y="-297.9" style="font-family:Times New Roman;font-size:14.00;">place :string</text>
<text text-anchor="start" x="455.5" y="-280.9" style="font-family:Times New Roman;font-size:14.00;">created_at :datetime</text>
<text text-anchor="start" x="455.5" y="-263.9" style="font-family:Times New Roman;font-size:14.00;">updated_at :datetime</text>
</g>
<!-- User -->
<g id="node5" class="node"><title>User</title>
<polyline style="fill:none;stroke:black;" points="642,-188 872,-188 "/>
<path style="fill:none;stroke:black;" d="M872,-188C878,-188 884,-194 884,-200"/>
<polyline style="fill:none;stroke:black;" points="884,-200 884,-430 "/>
<path style="fill:none;stroke:black;" d="M884,-430C884,-436 878,-442 872,-442"/>
<polyline style="fill:none;stroke:black;" points="872,-442 642,-442 "/>
<path style="fill:none;stroke:black;" d="M642,-442C636,-442 630,-436 630,-430"/>
<polyline style="fill:none;stroke:black;" points="630,-430 630,-200 "/>
<path style="fill:none;stroke:black;" d="M630,-200C630,-194 636,-188 642,-188"/>
<text text-anchor="middle" x="757" y="-424.9" style="font-family:Times New Roman;font-size:14.00;">User</text>
<polyline style="fill:none;stroke:black;" points="630,-417 884,-417 "/>
<text text-anchor="start" x="638" y="-399.9" style="font-family:Times New Roman;font-size:14.00;">id :integer</text>
<text text-anchor="start" x="638" y="-382.9" style="font-family:Times New Roman;font-size:14.00;">email :string</text>
<text text-anchor="start" x="638" y="-365.9" style="font-family:Times New Roman;font-size:14.00;">encrypted_password :string</text>
<text text-anchor="start" x="638" y="-348.9" style="font-family:Times New Roman;font-size:14.00;">reset_password_token :string</text>
<text text-anchor="start" x="638" y="-331.9" style="font-family:Times New Roman;font-size:14.00;">reset_password_sent_at :datetime</text>
<text text-anchor="start" x="638" y="-314.9" style="font-family:Times New Roman;font-size:14.00;">remember_created_at :datetime</text>
<text text-anchor="start" x="638" y="-297.9" style="font-family:Times New Roman;font-size:14.00;">sign_in_count :integer</text>
<text text-anchor="start" x="638" y="-280.9" style="font-family:Times New Roman;font-size:14.00;">current_sign_in_at :datetime</text>
<text text-anchor="start" x="638" y="-263.9" style="font-family:Times New Roman;font-size:14.00;">last_sign_in_at :datetime</text>
<text text-anchor="start" x="638" y="-246.9" style="font-family:Times New Roman;font-size:14.00;">current_sign_in_ip :string</text>
<text text-anchor="start" x="638" y="-229.9" style="font-family:Times New Roman;font-size:14.00;">last_sign_in_ip :string</text>
<text text-anchor="start" x="638" y="-212.9" style="font-family:Times New Roman;font-size:14.00;">created_at :datetime</text>
<text text-anchor="start" x="638" y="-195.9" style="font-family:Times New Roman;font-size:14.00;">updated_at :datetime</text>
</g>
</g>
</svg>
