<?xml version="1.0" encoding="UTF-8" standalone="no"?>
<!DOCTYPE svg PUBLIC "-//W3C//DTD SVG 1.0//EN"
 "http://www.w3.org/TR/2001/REC-SVG-20010904/DTD/svg10.dtd" [
 <!ATTLIST svg xmlns:xlink CDATA #FIXED "http://www.w3.org/1999/xlink">
]>
<!-- Generated by Graphviz version 2.20.2 (Tue Mar &#160;2 21:46:26 UTC 2010)
     For user: (heurion) HEURION,,, -->
<!-- Title: models_diagram Pages: 1 -->
<svg width="550pt" height="174pt"
 viewBox="0.00 0.00 550.00 174.00" xmlns="http://www.w3.org/2000/svg" xmlns:xlink="http://www.w3.org/1999/xlink">
<g id="graph0" class="graph" transform="scale(1 1) rotate(0) translate(4 170)">
<title>models_diagram</title>
<polygon style="fill:white;stroke:white;" points="-4,4 -4,-170 546,-170 546,4 -4,4"/>
<!-- _diagram_info -->
<g id="node1" class="node"><title>_diagram_info</title>
<text text-anchor="start" x="7.5" y="-149.8" style="font-family:Times New Roman;font-size:13.00;">Models diagram</text>
<text text-anchor="start" x="7.5" y="-132.8" style="font-family:Times New Roman;font-size:13.00;">Date: Oct 17 2012 &#45; 13:25</text>
<text text-anchor="start" x="7.5" y="-115.8" style="font-family:Times New Roman;font-size:13.00;">Migration version: 20121015131915</text>
<text text-anchor="start" x="7.5" y="-98.8" style="font-family:Times New Roman;font-size:13.00;">Generated by RailRoady 1.1.0</text>
<text text-anchor="start" x="7.5" y="-81.8" style="font-family:Times New Roman;font-size:13.00;">http://railroady.prestonlee.com</text>
</g>
<!-- Koti -->
<g id="node2" class="node"><title>Koti</title>
<ellipse style="fill:none;stroke:black;" cx="295" cy="-119" rx="29.1851" ry="18"/>
<text text-anchor="middle" x="295" y="-114.9" style="font-family:Times New Roman;font-size:14.00;">Koti</text>
</g>
<!-- Emp -->
<g id="node4" class="node"><title>Emp</title>
<ellipse style="fill:none;stroke:black;" cx="295" cy="-18" rx="31.9646" ry="18"/>
<text text-anchor="middle" x="295" y="-13.9" style="font-family:Times New Roman;font-size:14.00;">Emp</text>
</g>
<!-- Koti&#45;&gt;Emp -->
<g id="edge2" class="edge"><title>Koti&#45;&gt;Emp</title>
<path style="fill:none;stroke:#cad4d5;" d="M295,-91C295,-77 295,-61 295,-46"/>
<polygon style="fill:#cad4d5;stroke:#cad4d5;" points="295,-91 290.5,-101 295,-96 295,-101 295,-101 295,-101 295,-96 299.5,-101 295,-91 295,-91"/>
<polygon style="fill:#cad4d5;stroke:#cad4d5;" points="295,-46 299.5,-36 295,-41 295,-36 295,-36 295,-36 295,-41 290.5,-36 295,-46 295,-46"/>
</g>
<!-- Education -->
<g id="node3" class="node"><title>Education</title>
<ellipse style="fill:none;stroke:black;" cx="400" cy="-119" rx="57.8712" ry="18"/>
<text text-anchor="middle" x="400" y="-114.9" style="font-family:Times New Roman;font-size:14.00;">Education</text>
</g>
<!-- User -->
<g id="node5" class="node"><title>User</title>
<ellipse style="fill:none;stroke:black;" cx="509" cy="-119" rx="32.8565" ry="18"/>
<text text-anchor="middle" x="509" y="-114.9" style="font-family:Times New Roman;font-size:14.00;">User</text>
</g>
</g>
</svg>
